<svg width="126.2" height="92" viewBox="0 0 126.2 92" xmlns="http://www.w3.org/2000/svg"><g id="svgGroup" stroke-linecap="round" fill-rule="evenodd" font-size="9pt" stroke="#00000000" stroke-width="0.25mm" fill="#ffffff" style="stroke:#00000000;stroke-width:0.25mm;fill:#ffffff"><path d="M 45.5 1 C 20.4 1 0 21.4 0 46.5 C 0 71.6 20.4 92 45.5 92 C 70.6 92 91 71.6 91 46.5 C 91 21.4 70.6 1 45.5 1 Z M 45.5 10.7 C 65.2 10.7 81.3 26.8 81.3 46.5 C 81.3 66.2 65.2 82.3 45.5 82.3 C 25.8 82.3 9.7 66.2 9.7 46.5 C 9.7 26.8 25.8 10.7 45.5 10.7 Z M 103.6 5 L 96.7 7.8 A 40.231 40.231 0 0 1 97.674 9.245 C 100.025 12.881 103.175 18.663 105.302 22.624 A 1154.957 1154.957 0 0 1 106.2 24.3 L 113.4 21.3 A 188.425 188.425 0 0 0 112.487 19.662 C 110.025 15.29 105.885 8.252 103.6 5 Z M 116.5 0 L 109.5 2.9 A 39.035 39.035 0 0 1 110.498 4.329 C 112.912 7.936 116.084 13.605 118.273 17.537 A 2076.331 2076.331 0 0 0 119.2 19.2 L 126.2 16.2 A 413.697 413.697 0 0 0 125.269 14.56 C 123.072 10.705 119.583 4.711 117.245 1.119 A 58.86 58.86 0 0 0 116.5 0 Z" vector-effect="non-scaling-stroke"/></g></svg>